<?xml version="1.0" encoding="UTF-8" standalone="no"?><!DOCTYPE svg PUBLIC "-//W3C//DTD SVG 1.1//EN" "http://www.w3.org/Graphics/SVG/1.1/DTD/svg11.dtd"><svg width="100%" height="100%" viewBox="0 0 72 72" version="1.1" xmlns="http://www.w3.org/2000/svg" xmlns:xlink="http://www.w3.org/1999/xlink" xml:space="preserve" xmlns:serif="http://www.serif.com/" style="fill-rule:evenodd;clip-rule:evenodd;stroke-linejoin:round;stroke-miterlimit:2;"><path d="M36,4.5c-17.385,0 -31.5,14.115 -31.5,31.5c0,17.385 14.115,31.5 31.5,31.5c17.385,0 31.5,-14.115 31.5,-31.5c0,-17.385 -14.115,-31.5 -31.5,-31.5Zm-22.389,33.75c1.057,10.623 9.516,19.083 20.139,20.139l0,4.518c-13.11,-1.084 -23.575,-11.55 -24.657,-24.657l4.518,-0Zm49.296,-0c-1.084,13.11 -11.55,23.575 -24.657,24.657l0,-4.518c10.623,-1.057 19.083,-9.516 20.139,-20.139l4.518,-0Zm-29.157,-29.157l0,4.518c-10.623,1.057 -19.083,9.516 -20.139,20.139l-4.518,-0c1.084,-13.11 11.55,-23.575 24.657,-24.657Zm4.5,-0c13.11,1.084 23.575,11.55 24.657,24.657l-4.518,-0c-1.057,-10.623 -9.516,-19.083 -20.139,-20.139l0,-4.518Z" style="fill:#ff2b3d;"/></svg>