<?xml version="1.0" encoding="UTF-8" standalone="no"?><!DOCTYPE svg PUBLIC "-//W3C//DTD SVG 1.1//EN" "http://www.w3.org/Graphics/SVG/1.1/DTD/svg11.dtd"><svg width="100%" height="100%" viewBox="0 0 72 72" version="1.1" xmlns="http://www.w3.org/2000/svg" xmlns:xlink="http://www.w3.org/1999/xlink" xml:space="preserve" xmlns:serif="http://www.serif.com/" style="fill-rule:evenodd;clip-rule:evenodd;stroke-linejoin:round;stroke-miterlimit:2;"><path d="M36,5.943l6.225,15.028l15.029,-6.225l-6.225,15.029l15.028,6.225l-15.028,6.225l6.225,15.029l-15.029,-6.225l-6.225,15.028l-6.225,-15.028l-15.029,6.225l6.225,-15.029l-15.028,-6.225l15.028,-6.225l-6.225,-15.029l15.029,6.225l6.225,-15.028Zm0,11.759l3.79,9.149l9.149,-3.79c-0,0 -3.79,9.149 -3.79,9.149l9.149,3.79c-0,0 -9.149,3.79 -9.149,3.79l3.79,9.149c-0,-0 -9.149,-3.79 -9.149,-3.79l-3.79,9.149c-0,-0 -3.79,-9.149 -3.79,-9.149l-9.149,3.79c0,-0 3.79,-9.149 3.79,-9.149l-9.149,-3.79c0,-0 9.149,-3.79 9.149,-3.79l-3.79,-9.149c0,0 9.149,3.79 9.149,3.79l3.79,-9.149Z" style="fill:#ffc806;"/></svg>