<?xml version="1.0" encoding="UTF-8" standalone="no"?><!DOCTYPE svg PUBLIC "-//W3C//DTD SVG 1.1//EN" "http://www.w3.org/Graphics/SVG/1.1/DTD/svg11.dtd"><svg width="100%" height="100%" viewBox="0 0 72 72" version="1.1" xmlns="http://www.w3.org/2000/svg" xmlns:xlink="http://www.w3.org/1999/xlink" xml:space="preserve" xmlns:serif="http://www.serif.com/" style="fill-rule:evenodd;clip-rule:evenodd;stroke-linejoin:round;stroke-miterlimit:2;"><path d="M39.248,9.196c-2.157,-0.261 -4.339,-0.261 -6.496,0l-2.557,5.999c-1.675,0.467 -3.287,1.135 -4.801,1.988l-6.051,-2.433c-1.71,1.341 -3.252,2.883 -4.593,4.593l2.433,6.051c-0.853,1.514 -1.521,3.126 -1.988,4.801l-5.999,2.557c-0.261,2.157 -0.261,4.339 0,6.496l5.999,2.557c0.467,1.675 1.135,3.287 1.988,4.801l-2.433,6.051c1.341,1.71 2.883,3.252 4.593,4.593l6.051,-2.433c1.514,0.853 3.126,1.521 4.801,1.988l2.557,5.999c2.157,0.261 4.339,0.261 6.496,-0l2.557,-5.999c1.675,-0.467 3.287,-1.135 4.801,-1.988l6.051,2.433c1.71,-1.341 3.252,-2.883 4.593,-4.593l-2.433,-6.051c0.853,-1.514 1.521,-3.126 1.988,-4.801l5.999,-2.557c0.261,-2.157 0.261,-4.339 -0,-6.496l-5.999,-2.557c-0.467,-1.675 -1.135,-3.287 -1.988,-4.801l2.433,-6.051c-1.341,-1.71 -2.883,-3.252 -4.593,-4.593l-6.051,2.433c-1.514,-0.853 -3.126,-1.521 -4.801,-1.988l-2.557,-5.999Zm-3.248,10.604c8.941,-0 16.2,7.259 16.2,16.2c0,8.941 -7.259,16.2 -16.2,16.2c-8.941,0 -16.2,-7.259 -16.2,-16.2c-0,-8.941 7.259,-16.2 16.2,-16.2Z" style="fill:#ff3e29;"/></svg>