<?xml version="1.0" encoding="UTF-8" standalone="no"?><!DOCTYPE svg PUBLIC "-//W3C//DTD SVG 1.1//EN" "http://www.w3.org/Graphics/SVG/1.1/DTD/svg11.dtd"><svg width="100%" height="100%" viewBox="0 0 72 72" version="1.1" xmlns="http://www.w3.org/2000/svg" xmlns:xlink="http://www.w3.org/1999/xlink" xml:space="preserve" xmlns:serif="http://www.serif.com/" style="fill-rule:evenodd;clip-rule:evenodd;stroke-linejoin:round;stroke-miterlimit:2;"><path d="M36,9l5.592,13.5l13.5,-5.592l-5.592,13.5l13.5,5.592l-13.5,5.592l5.592,13.5l-13.5,-5.592l-5.592,13.5l-5.592,-13.5l-13.5,5.592l5.592,-13.5l-13.5,-5.592l13.5,-5.592l-5.592,-13.5l13.5,5.592l5.592,-13.5Zm0,11.759l3.157,7.621l7.62,-3.157c-0,0 -3.157,7.62 -3.157,7.62l7.621,3.157c-0,0 -7.621,3.157 -7.621,3.157l3.157,7.62c-0,-0 -7.62,-3.157 -7.62,-3.157l-3.157,7.621c-0,-0 -3.157,-7.621 -3.157,-7.621l-7.62,3.157c0,-0 3.157,-7.62 3.157,-7.62l-7.621,-3.157c0,-0 7.621,-3.157 7.621,-3.157l-3.157,-7.62c0,0 7.62,3.157 7.62,3.157l3.157,-7.621Z" style="fill:#ffc806;"/></svg>