<?xml version="1.0" encoding="UTF-8" standalone="no"?><!DOCTYPE svg PUBLIC "-//W3C//DTD SVG 1.1//EN" "http://www.w3.org/Graphics/SVG/1.1/DTD/svg11.dtd"><svg width="100%" height="100%" viewBox="0 0 72 72" version="1.1" xmlns="http://www.w3.org/2000/svg" xmlns:xlink="http://www.w3.org/1999/xlink" xml:space="preserve" xmlns:serif="http://www.serif.com/" style="fill-rule:evenodd;clip-rule:evenodd;stroke-linejoin:round;stroke-miterlimit:2;"><path d="M36,27.581c-2.917,-5.053 -8.377,-8.456 -14.625,-8.456c-9.314,0 -16.875,7.561 -16.875,16.875c0,9.314 7.561,16.875 16.875,16.875c6.248,0 11.708,-3.403 14.625,-8.456c2.917,5.053 8.377,8.456 14.625,8.456c9.314,0 16.875,-7.561 16.875,-16.875c0,-9.314 -7.561,-16.875 -16.875,-16.875c-6.248,0 -11.708,3.403 -14.625,8.456Zm-3.095,3.919c-1.802,-4.608 -6.287,-7.875 -11.53,-7.875c-6.83,0 -12.375,5.545 -12.375,12.375c0,6.83 5.545,12.375 12.375,12.375c5.243,0 9.728,-3.267 11.53,-7.875l-11.53,0c-2.484,0 -4.5,-2.016 -4.5,-4.5c-0,-2.484 2.016,-4.5 4.5,-4.5l11.53,0Zm6.19,9c1.802,4.608 6.287,7.875 11.53,7.875c6.83,0 12.375,-5.545 12.375,-12.375c0,-6.83 -5.545,-12.375 -12.375,-12.375c-5.243,0 -9.728,3.267 -11.53,7.875l11.53,0c2.484,0 4.5,2.016 4.5,4.5c-0,2.484 -2.016,4.5 -4.5,4.5l-11.53,0Z" style="fill:#35e200;"/></svg>