<?xml version="1.0" encoding="UTF-8" standalone="no"?><!DOCTYPE svg PUBLIC "-//W3C//DTD SVG 1.1//EN" "http://www.w3.org/Graphics/SVG/1.1/DTD/svg11.dtd"><svg width="100%" height="100%" viewBox="0 0 72 72" version="1.1" xmlns="http://www.w3.org/2000/svg" xmlns:xlink="http://www.w3.org/1999/xlink" xml:space="preserve" xmlns:serif="http://www.serif.com/" style="fill-rule:evenodd;clip-rule:evenodd;stroke-linejoin:round;stroke-miterlimit:2;"><path d="M9,35.905c0.051,-14.857 12.13,-26.905 27,-26.905c14.87,0 26.949,12.048 27,26.905c-0,0.032 0,0.064 0,0.095c0,0.031 -0,0.063 -0,0.095c-0.051,14.857 -12.13,26.905 -27,26.905c-14.902,0 -27,-12.098 -27,-27l0,-0.095Zm27,7.888c2.591,4.104 7.167,6.832 12.375,6.832c1.99,-0 3.887,-0.398 5.617,-1.119c-4.108,5.461 -10.64,8.994 -17.992,8.994c-7.352,0 -13.884,-3.533 -17.992,-8.994c1.73,0.721 3.627,1.119 5.617,1.119c5.208,-0 9.784,-2.728 12.375,-6.832Zm-12.375,-17.918c5.588,0 10.125,4.537 10.125,10.125c-0,5.588 -4.537,10.125 -10.125,10.125c-5.588,-0 -10.125,-4.537 -10.125,-10.125c0,-5.588 4.537,-10.125 10.125,-10.125Zm34.875,10.06l0,0.065l-0,0.065c-0.035,5.558 -4.559,10.06 -10.125,10.06c-5.588,-0 -10.125,-4.537 -10.125,-10.125c0,-5.588 4.537,-10.125 10.125,-10.125c5.566,0 10.09,4.502 10.125,10.06Zm-4.508,-13.441c-1.73,-0.721 -3.627,-1.119 -5.617,-1.119c-5.208,0 -9.784,2.728 -12.375,6.832c-2.591,-4.104 -7.167,-6.832 -12.375,-6.832c-1.99,0 -3.887,0.398 -5.617,1.119c4.108,-5.461 10.64,-8.994 17.992,-8.994c7.352,0 13.884,3.533 17.992,8.994Z" style="fill:#35e200;"/></svg>