<?xml version="1.0" encoding="UTF-8" standalone="no"?><!DOCTYPE svg PUBLIC "-//W3C//DTD SVG 1.1//EN" "http://www.w3.org/Graphics/SVG/1.1/DTD/svg11.dtd"><svg width="100%" height="100%" viewBox="0 0 72 72" version="1.1" xmlns="http://www.w3.org/2000/svg" xmlns:xlink="http://www.w3.org/1999/xlink" xml:space="preserve" xmlns:serif="http://www.serif.com/" style="fill-rule:evenodd;clip-rule:evenodd;stroke-linejoin:round;stroke-miterlimit:2;"><path d="M28.363,43.637l3.413,19.031c-11.553,-1.83 -20.614,-10.891 -22.444,-22.444l19.031,3.413Zm15.274,-0l19.031,-3.413c-1.83,11.553 -10.891,20.614 -22.444,22.444l3.413,-19.031Zm3.876,3.876l8.664,-1.554c-2.188,4.432 -5.786,8.03 -10.218,10.218c0,0 1.554,-8.664 1.554,-8.664l0,0Zm-23.026,0l1.554,8.664c-4.432,-2.188 -8.03,-5.786 -10.218,-10.218c-0,0 8.664,1.554 8.664,1.554l-0,0Zm19.15,-19.15l-3.413,-19.031c11.553,1.83 20.614,10.891 22.444,22.444l-19.031,-3.413Zm-15.274,0l-19.031,3.413c1.83,-11.553 10.891,-20.614 22.444,-22.444l-3.413,19.031Zm19.15,-3.876l-1.554,-8.664c4.432,2.188 8.03,5.786 10.218,10.218c0,-0 -8.664,-1.554 -8.664,-1.554l0,-0Zm-23.026,-0l-8.664,1.554c2.188,-4.432 5.786,-8.03 10.218,-10.218c-0,-0 -1.554,8.664 -1.554,8.664l-0,-0Z" style="fill:#3e68ff;"/></svg>